# xmcd
#
# Track frame offsets:
#	180
#	31255
#	57130
#	94202
#	116562
#	150420
#	183091
#	208916
#	254806
#
# Disc length: 4310 seconds
#
# Revision: 1
# Processed by: cddbd v1.5.2PL0 Copyright (c) Steve Scherf et al.
# Submitted via: audiograbber 1.83.01
#
DISCID=7610d409
DTITLE=Spyra - Homelistening is killing Clubs [1995]
DYEAR=1995
DGENRE=Synthesizer
TTITLE0=adsr Z
TTITLE1=Inclined Plane
TTITLE2=ebb
TTITLE3=Xenophones
TTITLE4=Peddigree Tribe
TTITLE5=City of Glass
TTITLE6=Subsequent Spaces
TTITLE7=Iceland
TTITLE8=Future of the Past
EXTD=
EXTT0=
EXTT1=
EXTT2=
EXTT3=
EXTT4=
EXTT5=
EXTT6=
EXTT7=
EXTT8=
PLAYORDER=
